# xmcd CD database file
#
# Track frame offsets:
#	183
#	45170
#	105785
#	155240
#	211178
#	244155
#
# Disc length: 3630 seconds
#
# Revision: 0
# Processed by: cddbd v1.5.1PL2 Copyright (c) Steve Scherf et al.
# Submitted via: CDex 1.51
#
DISCID=400e2c06
DTITLE=Loud Jazz Band - Passport Jazz Night
DYEAR=1994
DGENRE=Jazz
TTITLE0=Ostatnia Prosta
TTITLE1=Glanni
TTITLE2=Goglas
TTITLE3=King And I
TTITLE4=Omaha Celebration
TTITLE5=Crystal Silence
EXTD=YEAR: 1994
EXTT0=
EXTT1=
EXTT2=
EXTT3=
EXTT4=
EXTT5=
PLAYORDER=
